<svg width="18" height="18" viewBox="0 0 18 18" fill="none" xmlns="http://www.w3.org/2000/svg">
<path d="M9.5625 0.55102C9.5625 0.2467 9.31066 0 9 0C8.68934 0 8.4375 0.2467 8.4375 0.55102V1.65306C8.4375 1.95738 8.68934 2.20408 9 2.20408C9.31066 2.20408 9.5625 1.95738 9.5625 1.65306V0.55102Z" fill="#FFB706"/>
<path d="M13.7842 7.89915C13.5673 6.81321 12.9721 5.83476 12.1004 5.13102C11.2287 4.42728 10.1345 4.04193 9.00495 4.0408C7.87536 4.03968 6.78042 4.42286 5.90724 5.12486C5.03407 5.82686 4.43686 6.80412 4.21766 7.88963C3.99847 8.97514 4.17089 10.1015 4.70547 11.0763C5.24005 12.0511 6.1036 12.8138 7.14857 13.234C7.43595 13.3496 7.57328 13.6715 7.4553 13.953C7.33732 14.2345 7.0087 14.3691 6.72132 14.2535C5.43521 13.7363 4.37237 12.7976 3.71442 11.5979C3.05648 10.3981 2.84427 9.01179 3.11405 7.67578C3.38383 6.33977 4.11886 5.13699 5.19353 4.27299C6.26821 3.40898 7.61582 2.93738 9.00609 2.93876C10.3964 2.94014 11.743 3.41443 12.8159 4.28057C13.8888 5.14672 14.6213 6.35095 14.8883 7.6875C15.1553 9.02405 14.9402 10.4099 14.2798 11.6084C13.6194 12.8068 12.5546 13.7434 11.2674 14.258C10.9798 14.373 10.6514 14.2378 10.534 13.9561C10.4166 13.6743 10.5546 13.3527 10.8423 13.2377C11.8881 12.8195 12.7532 12.0586 13.2898 11.0849C13.8264 10.1111 14.0012 8.9851 13.7842 7.89915Z" fill="#FFB706"/>
<path d="M9 9.55102C9.31066 9.55102 9.5625 9.79772 9.5625 10.102V13.7755C9.5625 14.0798 9.31066 14.3265 9 14.3265C8.68934 14.3265 8.4375 14.0798 8.4375 13.7755V10.102C8.4375 9.79772 8.68934 9.55102 9 9.55102Z" fill="#FFB706"/>
<path d="M15.4887 2.59371C15.7084 2.8089 15.7084 3.15779 15.4887 3.37297L14.6932 4.15223C14.4736 4.36742 14.1174 4.36742 13.8977 4.15223C13.6781 3.93705 13.6781 3.58816 13.8977 3.37297L14.6932 2.59371C14.9129 2.37853 15.2691 2.37853 15.4887 2.59371Z" fill="#FFB706"/>
<path d="M17.4375 9.36735C17.7482 9.36735 18 9.12065 18 8.81633C18 8.51201 17.7482 8.26531 17.4375 8.26531H16.3125C16.0018 8.26531 15.75 8.51201 15.75 8.81633C15.75 9.12065 16.0018 9.36735 16.3125 9.36735H17.4375Z" fill="#FFB706"/>
<path d="M2.25 8.81633C2.25 9.12065 1.99816 9.36735 1.6875 9.36735H0.5625C0.25184 9.36735 0 9.12065 0 8.81633C0 8.51201 0.25184 8.26531 0.5625 8.26531H1.6875C1.99816 8.26531 2.25 8.51201 2.25 8.81633Z" fill="#FFB706"/>
<path d="M2.60225 3.37297C2.38258 3.15779 2.38258 2.8089 2.60225 2.59371C2.82192 2.37853 3.17808 2.37853 3.39775 2.59371L4.19324 3.37297C4.41291 3.58816 4.41291 3.93705 4.19324 4.15223C3.97357 4.36742 3.61742 4.36742 3.39775 4.15223L2.60225 3.37297Z" fill="#FFB706"/>
<path d="M6.1875 15.6122C6.1875 15.3079 6.43934 15.0612 6.75 15.0612H11.25C11.5607 15.0612 11.8125 15.3079 11.8125 15.6122C11.8125 15.9166 11.5607 16.1633 11.25 16.1633H6.75C6.43934 16.1633 6.1875 15.9166 6.1875 15.6122Z" fill="#FFB706"/>
<path d="M7.3125 16.898C7.00184 16.898 6.75 17.1447 6.75 17.449C6.75 17.7533 7.00184 18 7.3125 18H10.6875C10.9982 18 11.25 17.7533 11.25 17.449C11.25 17.1447 10.9982 16.898 10.6875 16.898H7.3125Z" fill="#FFB706"/>
</svg>
