<svg width="14" height="15" viewBox="0 0 14 15" fill="none" xmlns="http://www.w3.org/2000/svg">
<path d="M13.75 0.25V1.75C13.75 8.97025 9.72025 12.25 4.75 12.25H1.93225C1.81 12.934 1.75 13.6803 1.75 14.5H0.25C0.25 13.4778 0.337 12.55 0.5095 11.701C0.337 10.7305 0.25 9.4135 0.25 7.75C0.25 3.60775 3.60775 0.25 7.75 0.25C9.25 0.25 10.75 1 13.75 0.25ZM7.75 1.75C4.4365 1.75 1.75 4.4365 1.75 7.75C1.75 8.0215 1.75225 8.28325 1.7575 8.5345C2.698 7.051 4.07575 5.87875 5.878 4.849L6.622 6.151C4.48075 7.375 3.06025 8.7655 2.332 10.75H4.75C9.26125 10.75 12.1532 7.77025 12.2477 2.041C11.2188 2.14075 10.2625 2.077 9.08275 1.9C8.22025 1.77025 8.05075 1.75 7.75 1.75Z" fill="#939295"/>
</svg>
