<svg width="61" height="61" viewBox="0 0 61 61" fill="none" xmlns="http://www.w3.org/2000/svg">
    <defs>
        <filter id="filter0_bdii_2_525" x="8" y="8.00001" width="52.9999" height="53" filterUnits="userSpaceOnUse"
            color-interpolation-filters="sRGB">
            <feFlood flood-opacity="0" result="BackgroundImageFix" />
            <feGaussianBlur in="BackgroundImage" stdDeviation="3.5" />
            <feComposite in2="SourceAlpha" operator="in" result="effect1_backgroundBlur_2_525" />
            <feColorMatrix in="SourceAlpha" type="matrix" values="0 0 0 0 0 0 0 0 0 0 0 0 0 0 0 0 0 0 127 0"
                result="hardAlpha" />
            <feOffset dy="3" />
            <feGaussianBlur stdDeviation="7" />
            <feComposite in2="hardAlpha" operator="out" />
            <feColorMatrix type="matrix" values="0 0 0 0 0 0 0 0 0 0 0 0 0 0 0 0 0 0 0.07 0" />
            <feBlend mode="normal" in2="effect1_backgroundBlur_2_525" result="effect2_dropShadow_2_525" />
            <feBlend mode="normal" in="SourceGraphic" in2="effect2_dropShadow_2_525" result="shape" />
            <feColorMatrix in="SourceAlpha" type="matrix" values="0 0 0 0 0 0 0 0 0 0 0 0 0 0 0 0 0 0 127 0"
                result="hardAlpha" />
            <feOffset dx="-0.3" dy="-0.3" />
            <feGaussianBlur stdDeviation="0.15" />
            <feComposite in2="hardAlpha" operator="arithmetic" k2="-1" k3="1" />
            <feColorMatrix type="matrix" values="0 0 0 0 0.513726 0 0 0 0 0.219608 0 0 0 0 0.92549 0 0 0 0.15 0" />
            <feBlend mode="normal" in2="shape" result="effect3_innerShadow_2_525" />
            <feColorMatrix in="SourceAlpha" type="matrix" values="0 0 0 0 0 0 0 0 0 0 0 0 0 0 0 0 0 0 127 0"
                result="hardAlpha" />
            <feOffset dx="0.3" dy="0.3" />
            <feGaussianBlur stdDeviation="0.15" />
            <feComposite in2="hardAlpha" operator="arithmetic" k2="-1" k3="1" />
            <feColorMatrix type="matrix" values="0 0 0 0 1 0 0 0 0 1 0 0 0 0 1 0 0 0 0.65 0" />
            <feBlend mode="normal" in2="effect3_innerShadow_2_525" result="effect4_innerShadow_2_525" />
        </filter>
        <linearGradient id="paint0_linear_2_525" x1="14.1875" y1="13.5433" x2="37.8069" y2="40.6769"
            gradientUnits="userSpaceOnUse">
            <stop offset="0.393651" stop-color="#FFCA46" />
            <stop offset="1" stop-color="#FF9B06" />
        </linearGradient>
    </defs>
    <rect width="56" height="56" rx="16" fill="#F8F3FF" />
    <path
        d="M29.4267 34.1448C22.2012 32.7886 17.3847 25.9022 18.7076 18.8191C19.2157 16.0992 20.5484 13.7687 22.3745 12C16.8066 13.301 12.3386 17.6823 11.2485 23.5188C9.75614 31.5085 15.1393 39.2051 23.2897 40.7349C30.5152 42.0911 37.4794 38.1196 40 31.6718C37.1326 33.8903 33.2996 34.8717 29.4267 34.1448Z"
        fill="url(#paint0_linear_2_525)" />
    <g filter="url(#filter0_bdii_2_525)">
        <path
            d="M34.5 44C41.4035 44 46.9999 38.4036 46.9999 31.5C46.9999 24.5964 41.4035 19 34.5 19C27.5964 19 22 24.5964 22 31.5C22 38.4036 27.5964 44 34.5 44Z"
            fill="#8338EC" fill-opacity="0.15" shape-rendering="crispEdges" />
    </g>
    <path d="M34.4999 21V22.9051" stroke="#8338EC" stroke-miterlimit="10" />
    <path d="M41.9429 24.057L40.6138 25.4304" stroke="#8338EC" stroke-miterlimit="10" />
    <path d="M44.9999 31.5H43.1392" stroke="#8338EC" stroke-miterlimit="10" />
    <path d="M41.9429 38.943L40.6138 37.6139" stroke="#8338EC" stroke-miterlimit="10" />
    <path d="M34.4999 41.9999V40.1392" stroke="#8338EC" stroke-miterlimit="10" />
    <path d="M27.0569 38.943L28.4303 37.6139" stroke="#8338EC" stroke-miterlimit="10" />
    <path d="M24 31.5H25.9051" stroke="#8338EC" stroke-miterlimit="10" />
    <path d="M27.0569 24.057L28.4303 25.4304" stroke="#8338EC" stroke-miterlimit="10" />
    <path d="M37.4557 23L34.6006 32.4403L29.4557 28.5" stroke="#8338EC" stroke-width="1.2" stroke-miterlimit="10"
        stroke-linecap="round" />
</svg>