<svg width="23" height="22" viewBox="0 0 23 22" fill="none" xmlns="http://www.w3.org/2000/svg">
<path d="M11.4995 17C9.90821 17 8.38209 16.3679 7.25687 15.2426C6.13165 14.1174 5.49951 12.5913 5.49951 11C5.49951 9.4087 6.13165 7.88258 7.25687 6.75736C8.38209 5.63214 9.90821 5 11.4995 5C13.0908 5 14.6169 5.63214 15.7422 6.75736C16.8674 7.88258 17.4995 9.4087 17.4995 11C17.4995 12.5913 16.8674 14.1174 15.7422 15.2426C14.6169 16.3679 13.0908 17 11.4995 17ZM11.4995 15C12.5604 15 13.5778 14.5786 14.3279 13.8284C15.0781 13.0783 15.4995 12.0609 15.4995 11C15.4995 9.93913 15.0781 8.92172 14.3279 8.17157C13.5778 7.42143 12.5604 7 11.4995 7C10.4386 7 9.42123 7.42143 8.67108 8.17157C7.92094 8.92172 7.49951 9.93913 7.49951 11C7.49951 12.0609 7.92094 13.0783 8.67108 13.8284C9.42123 14.5786 10.4386 15 11.4995 15ZM10.4995 0H12.4995V3H10.4995V0ZM10.4995 19H12.4995V22H10.4995V19ZM3.01451 3.929L4.42851 2.515L6.54951 4.636L5.13551 6.05L3.01451 3.93V3.929ZM16.4495 17.364L17.8635 15.95L19.9845 18.071L18.5705 19.485L16.4495 17.364ZM18.5705 2.514L19.9845 3.929L17.8635 6.05L16.4495 4.636L18.5705 2.515V2.514ZM5.13551 15.95L6.54951 17.364L4.42851 19.485L3.01451 18.071L5.13551 15.95ZM22.4995 10V12H19.4995V10H22.4995ZM3.49951 10V12H0.499512V10H3.49951Z" fill="#FFB706"/>
</svg>
